<svg xmlns="http://www.w3.org/2000/svg" viewBox="0 0 1565.91 1438.3"><defs><style>.cls-1{fill:url(#radial-gradient);}</style><radialGradient id="radial-gradient" cx="785.35" cy="1438.11" r="1819.79" gradientUnits="userSpaceOnUse"><stop offset="0" stop-color="#003cff"/><stop offset="0.19" stop-color="#005bff"/><stop offset="0.59" stop-color="#00a8ff"/><stop offset="1" stop-color="#00fbff"/></radialGradient></defs><g id="Layer_2"><g id="Layer_1-2"><g id="Layer_10"><path class="cls-1" d="M1222.61,231.13a632.87,632.87,0,0,0-58.92-72C952.46-53,617.32-53,406.08,159.14a632.87,632.87,0,0,0-58.92,72c258.79-168.8,616.66-168.8,875.45,0m79,171.64a661.74,661.74,0,0,0-32.39-90c-300.09-123.71-668.19-123.71-968.28,0a621.73,621.73,0,0,0-32.4,90c169.18-38.84,343.47-54,516.63-54s347.07,15.15,516.44,54m16.86,96.43a7324.13,7324.13,0,0,0-1067.17,0,686.58,686.58,0,0,0,0,100.6,7324.13,7324.13,0,0,0,1067.17,0,683.81,683.81,0,0,0,0-100.6m-1050.31,197a663.14,663.14,0,0,0,32.4,90c300.09,123.71,668.19,123.71,968.28,0a620.51,620.51,0,0,0,32.39-90c-169.18,38.84-343.47,54-516.63,54s-347.07-15.15-516.44-54m79,171.64a632.87,632.87,0,0,0,58.92,72c211.24,212.18,546.38,212.18,757.61,0a632.87,632.87,0,0,0,58.92-72c-258.79,168.8-616.66,168.8-875.45,0M498,1099a518.14,518.14,0,0,0,38.64,58.35c138.49,171.83,358.06,172,496.55,0a547.06,547.06,0,0,0,38.65-58.35c-169.56,136.78-404.29,136.78-573.84,0m890.41-586.73a497.41,497.41,0,0,0,33-61.76C1506.79,247,1402.59,53.8,1185.48,13.45a524.24,524.24,0,0,0-69.72-6.25c201,84.3,312.4,290.8,272.62,505.07m127.88-206.12a364.62,364.62,0,0,0,24.25-39.59c64.6-129.59,1.89-245.72-141.9-262.77a340.9,340.9,0,0,0-46.42-1.33c131.48,45.09,198.36,169.37,164.07,303.69M177.61,517.2C137.82,302.93,249.22,96.62,450,12.31a523.93,523.93,0,0,0-69.71,6.26C163.21,58.73,59,252,144.45,455.63a537.32,537.32,0,0,0,33.16,61.57M49.73,311.27C15.44,176.76,82.31,52.67,213.6,7.58A376.34,376.34,0,0,0,167.19,8.9C23.58,26-39.13,142.28,25.29,271.67a366.19,366.19,0,0,0,24.44,39.6m568.73,998.21a346.24,346.24,0,0,0,23.3,40.16c83.36,118.22,215.4,118.22,298.76,0a375.91,375.91,0,0,0,23.3-40.16c-102.11,94-243.25,94-345.36,0"/></g></g></g></svg>